<?xml version="1.0" encoding="utf-8"?>
<!-- Generator: Adobe Illustrator 27.2.0, SVG Export Plug-In . SVG Version: 6.00 Build 0)  -->
<svg version="1.1" id="Calque_1" xmlns="http://www.w3.org/2000/svg" xmlns:xlink="http://www.w3.org/1999/xlink" x="0px" y="0px"
	 viewBox="0 0 447 447" style="enable-background:new 0 0 447 447;" xml:space="preserve">
<style type="text/css">
	.st0{fill-rule:evenodd;clip-rule:evenodd;fill:#F36B62;}
	.st1{fill-rule:evenodd;clip-rule:evenodd;fill:#FFFFFF;}
</style>
<rect class="st0" width="447" height="447"/>
<path class="st1" d="M279.8,94.7L223.5,64l-92.1,50.2l93.9,58.6L279.8,94.7z M285.7,97.9l-54.8,78.4l40.1,25l40.9-89.2L285.7,97.9z
	 M221.5,178.1l-96.7-60.4l-47.7,26v41.6l73.7,94L221.5,178.1z M155.1,284.9l72.1-103.3l41.1,25.6l-64.2,140.1L155.1,284.9z
	 M146.8,285.1l-69.8-89v107.1l41.4,22.5L146.8,285.1z M124.3,329l26.8-38.4l49.8,63.6l-6.1,13.2L124.3,329z M276.8,204.9l41-89.6
	l52.1,28.4v119.3L276.8,204.9z M274.1,210.9l-65.3,142.5l20.7,26.4L370,303.2v-32.5L274.1,210.9z M205.6,360.2l-4.8,10.5l22.7,12.3
	l0,0L205.6,360.2z"/>
</svg>
