<svg xmlns="http://www.w3.org/2000/svg" xml:space="preserve" viewBox="26 41 350 350">
  <path d="M113 365c-3 1-4 0-4-2l-1-16c0-3-1-3-4-2l-17 5 2-22-22 3 5-16c1-6 1-6-4-6l-16-1 5-15c2-5-1-6-4-6l-14-3 11-19-20-8 14-16-18-11 14-11c4-3 2-4-1-6l-13-10 18-12-14-16 21-7-12-19 21-5-9-19 14-1c8 0 8 0 6-8l-1-6-2-6c7-3 14 2 21-1l-2-20 21 5 1-22 20 9 5-21 18 11 6-15c1-3 2-5 6-1l10 9c2 2 3 1 4-1l9-16 15 17 13-17 12 18 15-14 9 19c5-3 10-5 14-9 3-2 4 0 5 2l5 16 19-9 2 22 16-3c4-1 5 0 5 4l-2 15h21l-5 21 22 1-8 16c-1 3 0 4 3 5l17 4-12 18 20 8-14 16 18 12-14 11c-2 2-3 3 0 5l12 10c2 1 1 2-1 3l-12 7c-4 2-4 3-1 6l11 12-20 8 12 19-21 4 8 20h-22l6 22-22-1 2 21-21-5-1 21-20-9-5 21-18-11-6 16c-1 4-2 4-5 1l-13-11-9 15c-2 3-3 3-5 0l-11-14-11 14c-2 3-4 2-5 0l-9-15-16 14-8-20-18 12-5-22-16 8z"/>
</svg>