<svg xmlns="http://www.w3.org/2000/svg" version="1.0" viewBox="0 0 400 600">
  <path d="m33 3-3 9-2 5-8-4L9 9C6 9 3 7 3 6L2 3C0 2 0 2 0 4l1 5c1 3 2 3 16 7 5 1 10 6 12 12l2 12v8l-4-4-5-4-4-2L1 28c-2 0 0 2 4 4 13 6 21 14 27 23l9 9 7 8 1 1c1-1 17 13 21 19 3 5 3 5-2 4l-30-2-10-1-4-4-7-9L7 68l-7-7v4c0 4 1 5 12 19 13 14 17 17 19 14l2-1 6 1a237 237 0 0 1 16 2c11 1 23 4 28 6 4 3 15 13 23 23l6 7 11 15 9 13v11l2 21 1 18c2 14 1 26-1 33-3 10-2 12 10 25l14 16c4 6 10 18 12 26 3 6 3 7 2 45 0 95 0 94-2 115l-1 13a565 565 0 0 1-10 54l-4 11c-3 12-5 15-17 32-3 6 0 8 5 3 2-1 4-2 5-1l2-1h-2c0-2 14-7 23-9 12-2 20 0 24 4 7 9 10 10 13 6 2-3 7-5 14-7l11-1c7 0 10 0 16 2l10 5c4 3 7 4 7 2l1-2-2-4-14-29-9-27-1-9-1-9a567 567 0 0 1-5-46c-2-14-3-70-2-107 0-25 2-35 7-41 2-3 12-8 23-14l12-7 2-8c0-10 2-16 7-29l7-15a922 922 0 0 0 28-58c8-20 14-31 16-33l29-19 15-8 9-5c11-6 12-7 12-12 0-4 0-5-1-4-4 3-35 18-49 23l-6 2 4-9 6-11c1-2 9-6 37-16l9-3v-4c0-4 0-4-2-4a564 564 0 0 0-35 11c-1-1 19-32 30-48l7-9V20l-8 13-38 58c-1 2-4 3-11 5l-9 4v-4l1-3 1-6 1-12 3-13c4-20 8-39 10-40 1-2 19-13 22-15l4 1 8 4c8 3 9 3 9 7l1 2c1 1 1 0 1-2s0-3 3-2c2 0 3-1 1-3v-1c2-2 1-3-1-2-3 2-6 2-9 0-3-1-3-1-2-5V0c-1 0-2 2-2 5v5l-11-8c0-3-4-2-5 0 0 2-4 4-9 8l-10 6 2-7c2-8 2-9-2-9-3 0-3 0-4 5-3 13-5 18-8 20-2 2-8 4-8 3 0-2 6-19 9-23 2-5 3-5 1-5l-4 3-3 3V3c0-4-3-4-3-1l-1 6-4 12-5 10-7 1c-6 3-6 2-6-2a67 67 0 0 1 7-21c1-2 2-5 4-6l3-2h-10c-9 0-10 0-15 3l-6 3V3c0-3 0-3-4-3h-4v6l-2 15a185 185 0 0 0-4 19l-1 6a237 237 0 0 1-10 41l-1 7-2 9c-1 7-1 9-7 30a1211 1211 0 0 0-12 46l-10 16-3-22a772 772 0 0 0-5-53c-1-12 0-13 4-25 14-40 19-50 29-66 5-8 7-11 9-19l3-9-5-1c-3 0-4 0-2 1 3 0 3 0 2 2l-5 11-4 8-5 9-2 2-2-5c-4-8-7-18-8-24 0-4 0-4-3-4h-3l3 10 4 14c6 14 6 14 4 21l-20 39c-1 1-1 3-1-23l-2-28c-2-6-2-7 0-11 2-6 1-7-5-7l-10-3-5-4 2-4 2-3c0-2-7-1-9 1h-5l-7-2h-3l2 2 5 4 2 2-3 4-18 18c-15 16-14 16-16 0 0-10 0-12-2-22l-1-8h-6c-4 0-5 0-5 2h-1c-1-2-3-2-7-2-5 0-5 0-5 2 1 1 0 2-2 3l-5 3c-1 3-2 2-3-4l-2-4c-1 0 0 5 3 12 2 8 2 12-2 14s-5 2-5 0l-8-15v3c1 2 1 2-1 2l-7 2h11l1 5 3 7c0 1 1 1 3-1l4-1-1 7-2 7-4-4-5-4 4 6c7 8 15 18 15 20l-3 1-9 5-5 4-2-3-2-5-8-18h-2l1 2 5 10-3 1c-4-1-4 1 1 2 3 0 4 1 5 4l2 6 2 2-6 3c-4 2-6 3-7 2L82 56c0-3-2-7-4-9-7-11-10-17-15-32L58 0h-8l2 7 2 8-1 1-5-9-5-7h-5c-4 0-4 0-5 3zm13 15 7 11a129 129 0 0 1 14 20c1 2 4 12 3 14 0 3 4 13 8 18l19 24 6 8c7 10 1 5-21-17a697 697 0 0 0-40-37c-2-2-4-8-5-17l-3-16c-1-6-1-14 1-18l1-3 3 4 7 9zm82-11 2 10a169 169 0 0 1 6 36v21l-3-6-9-13c-10-14-9-12-7-20 0-4 2-7 2-7l1-1V16c-2-3-1-5 3-8 4-2 5-3 5-1zm176 14-6 15c-2 2-2 3-1 6 1 4 0 24-3 28-1 2-5 7-11 11l-2 2v-8a231 231 0 0 1 14-54c-1-3-1-3 6-7l7-5-4 12zm-95 12 2 10 1 10 1 14c2 13 1 36-1 39l-4-2a222 222 0 0 0-50-24l2-6c1-6 8-21 12-26a610 610 0 0 0 22-32l3-4 6 7c6 6 6 7 6 14zm129 4a737 737 0 0 0-14 64l-4 1-4 1v-7c0-11 5-36 11-55 2-6 3-7 5-7s4-1 5-3l3-2-2 8zm-21 10-3 15-3 9-4 15c-3 12-8 26-11 30-6 9-34 41-34 38l2-9 3-11 8-21 19-27c5-6 9-11 9-13l1-11c0-16 2-22 8-24l8-3-3 12zM127 65l4 8 3 6c2 0 2 0 2 8l-1 16v33l-4-3a342 342 0 0 1-37-55l7-3c4-1 8-4 9-6 3-3 10-6 14-7l3 3zm41 25 12 6c4 1 10 5 13 7 11 5 18 12 19 18l1 11 3 27c3 11 5 40 4 43l-19 23c-7 6-10 3-27-29l-13-22-5-7-1-12c-1-23-1-62 1-67 1-2 2-2 12 2zm171 22-5 5-1-6 4-2 5-1-3 4zm-18 16-2 14-7 21-9 21c-3 9-44 90-47 93-2 3-6 5-12 8-8 4-11 5-8 2 2-1 2-6 1-6-2-2-1-11 3-23 5-15 5-18 5-21a278 278 0 0 1 9-46c1-4 3-7 14-21l18-22c10-12 25-27 30-30l6-2-1 12zm-163 82 6 10c3 5 6 14 5 18v8l-4-4c-5-5-9-11-10-16v-22l3 6zm81-1-5 24a453 453 0 0 1-15 45c-4 7-11 15-12 15l-3-4c-5-6-6-20-2-29 1-4 9-16 17-26a384 384 0 0 0 20-25z"/>
  <path d="M94 3c0 2-1 2-5 2h-4c-1 1 3 2 6 2s3 0 2 2v3c2-2 5-12 3-12l-2 3zm66 581v1l1-1v-1l-2 1zm51 13-1 2 1-1v-1z"/>
</svg>