<svg xmlns="http://www.w3.org/2000/svg" xml:space="preserve" viewBox="0 0 48 48">
  <path fill="#e1e5d6" d="M33.9 23.56c2.9-.61 6.72-2.66 7.3-3.62.6-.96-1.74-2.29-3.48-2.93-1.89-.7-6.97-2.47-7.27-3.4-.3-.93-2.2-4.34-3.39-6.34S24 5.6 24 5.6s-1.89-.35-3.06 1.66-3.1 5.4-3.4 6.34c-.29.93-5.37 2.7-7.26 3.4-1.74.64-4.08 1.97-3.49 2.93.6.96 4.66 3.16 7.55 3.77"/>
  <path fill="#8d8d8d" d="M33.9 23.56c2.9-.61 6.72-2.66 7.3-3.62.6-.96-20.47-8.77-34.4 0-.96.6 4.65 3.16 7.54 3.77"/>
  <path fill="#f4f4f4" d="M14.67 22.96s-.19 1.45-.49 3.27.1 2.41-1.8 3.2c-1.93.8-2.67 1.27-2.56 3.87.11 2.6-1.26 3.1-1.26 3.1s-.8 1.03.43 1.57c1.22.55 1.09.79.54 2.01-.54 1.23-.17 1.3.61.79.79-.51 1.15.37 1.84.22s1.57-1.23 2.53-.78c.95.46.88 1.55 1.8 1.85 0 0-.92-1.43.65-1.22s1.77.98 2.8.78.67-1.09 1.6-.44c.92.64 1.59 1.63 1.59 1.63s.62-1.36 1.58-1.05.61.64 1.5.24c.88-.41 3.16-1.85 4.18-1.16 1.03.68 1 .47 2.22.47 0 0-.88-.81.31-.95 1.2-.14 2.15.63 2.15.63s1.04.5 1.78.53c.74.03-.01-.38.47-1.91.47-1.53.4-1.02 1.46-.48 1.06.55-.3-1.39.58-1.39.89 0 .85-.14.61-.58-.23-.45.64.2-.72-.98-1.35-1.17-.82-2.28-.85-3.19-.02-.91.34-1.88-1.55-2.99-1.9-1.1-2.84-1.84-2.79-3.97.05-2.13-.66-4-.66-4l-1.08-4.8s-9.35-3.35-16.03-.67c0 0-1.06 3.86-1.44 6.4z"/>
  <path fill="#f9d9c0" d="M30.05 16.56c0 .24.33 3.32.04 4.3-.28 1 .22 2.17-.48 3.26-.66 1.03-1.3 1.88-1.38 2.34h-.03c-.73-.65-1.88-1.34-2.48-1.33-.82.02-1.62-.68-1.62-.68h.03s-.8.7-1.62.68c-.61-.01-1.76.68-2.48 1.33l-.04-.03c0-.43-.74-1.42-1.44-2.5s-.2-2.26-.48-3.25c-.28-.98-.03-4.07-.03-4.3 2.95-.52 8.02-1.3 12.01.18z"/>
  <path fill="#f4f4f4" d="M17.95 19.4s2.36-1.56 1.85-3.31l-1.76.28s-.25 2.19-.1 3.03zm12.17 0s-2.36-1.56-1.85-3.31l1.76.28s.25 2.19.09 3.03z"/>
  <path fill="none" stroke="#30302f" stroke-linecap="round" stroke-linejoin="round" stroke-miterlimit="10" stroke-width=".8" d="M33.9 23.56c2.9-.61 6.72-2.66 7.3-3.62.6-.96-1.74-2.29-3.48-2.93-1.89-.7-6.97-2.47-7.27-3.4-.3-.93-2.2-4.34-3.39-6.34S24 5.6 24 5.6s-1.89-.35-3.06 1.66-3.1 5.4-3.4 6.34c-.29.93-5.37 2.7-7.26 3.4-1.74.64-4.08 1.97-3.49 2.93.6.96 4.66 3.16 7.55 3.77"/>
  <path fill="none" stroke="#30302f" stroke-linecap="round" stroke-linejoin="round" stroke-miterlimit="10" stroke-width=".8" d="M41.2 19.94s-17.68-9.15-34.4 0"/>
  <path fill="none" stroke="#30302f" stroke-linecap="round" stroke-linejoin="round" stroke-miterlimit="10" stroke-width=".8" d="M32.03 16.97s.97 1.95 1.05 3.84c.09 1.9.91 3.99.87 5.22m-3.9-9.47c0 .24.33 3.32.04 4.3-.28 1 .22 2.17-.48 3.26-.66 1.03-1.3 1.88-1.38 2.34h-.03c-.73-.65-1.88-1.34-2.48-1.33-.82.02-1.62-.68-1.62-.68h.03s-.8.7-1.62.68c-.61-.01-1.76.68-2.48 1.33l-.04-.03c0-.43-.74-1.42-1.44-2.5s-.2-2.26-.48-3.25c-.28-.98-.03-4.07-.03-4.3m-.52 12.38s-.11 2.74.46 4.94c.57 2.2.98 5.84 2.05 6.51m10.6-11.45s.1 2.74-.46 4.94c-.57 2.2-.99 5.84-2.05 6.51"/>
  <path fill="none" stroke="#30302f" stroke-linecap="round" stroke-linejoin="round" stroke-miterlimit="10" stroke-width=".8" d="M29.9 23.44s.45 6.8 1.97 8.73 1.67 3.42 1.62 4.6c-.05 1.2 1.3 3.43 2.68 4.22M18.25 23.26s-.46 6.98-1.97 8.91-1.67 3.42-1.62 4.6c.05 1.2-1.3 3.43-2.68 4.22M16.1 16.7s-1.02 2.22-1.1 4.11c-.1 1.9-.91 3.99-.87 5.22m8.64.48s1.24.08 2.65-.02c0 0 .61-.08.67.6.06.67.16.87 1.33 1.27 1.17.4 1.33.96 1.24 1.33m-5.89-3.18s-.61-.07-.67.6c-.06.68-.16.88-1.33 1.28-1.17.4-1.33.95-1.24 1.33m10.68-10.13c-.4-.46-.81-.9-1.26-1.32a1.91 1.91 0 0 1-.45-.57 3.6 3.6 0 0 1-.22-.57c-.02-.06-.03-.86-.05-.93m-10.28 3.39c.4-.46.81-.9 1.26-1.32.19-.18.34-.34.45-.57.1-.18.16-.37.22-.57.02-.06 0-.98.02-1.04m14.05 9.94s-.53 2.27 1.38 3.24c1.91.97 3.06 1.6 2.9 3.72-.17 2.11-.1 2.73 1.23 3.41M14.13 26.03s.47 2.27-1.44 3.24-3.06 1.6-2.9 3.72c.17 2.11.1 2.73-1.23 3.41m21.97-22.65s-1.5-.5-3.9-.54m-2.6 11.03c.47.1.65-.41 1.16-.52.51-.1.67-.36.68-.66.02-.3-.34-.54-.35-.6 0 0 1.14-.02 1.34 2.9"/>
  <path fill="none" stroke="#30302f" stroke-linecap="round" stroke-linejoin="round" stroke-miterlimit="10" stroke-width=".8" d="M24.22 24.24c-.47.1-.65-.41-1.17-.52s-.66-.36-.68-.66c-.01-.3.34-.54.36-.6 0 0-1.24.73-1.03 2.9m6.53-4.29s-.75.18-1.4.19c-.66.01-1.35-.79-1.35-.79m2.42-1.09s-1.76.03-1.85 0l-.57-1.07s1.85-.34 2.11-.33c.26.02 1.36.29 1.36.29m-6.22 2.2s-.69.8-1.34.79c-.66-.01-1.41-.2-1.41-.2m.36-1.68s1.75.03 1.84 0l.55-1.07s-1.85-.34-2.1-.33c-.26.02-1.37.29-1.37.29m5.22-5.12s-.62-.07-1.24.02"/>
</svg>