<svg class="logo-tim" xmlns="http://www.w3.org/2000/svg" viewBox="0 0 1202.33 303.71" style="fill:rgb(255,0,59);">
        <circle cx="1113.33" cy="161.28" r="89"></circle>
        <path d="M785.69 166.81l16.26 16.26 16.26-16.26L930.56 54.46v226.25h-257V54.67l112.13 112.14zM650.56.71v303h303V.71h-1.77L801.95 150.54 652.12.71h-1.56zM324.48.46v303h303V.46h-303zm129.93 129.93c-13.08 13.08-13.08 34.29 0 47.38 9.41 9.41 23.02 12.05 34.79 7.92l94.77 94.77H347.48v-257h257v236.49l-94.77-94.77c4.13-11.77 1.48-25.39-7.92-34.79-13.09-13.08-34.3-13.08-47.38 0zM206.47 0L0 206.48V303h303V0h-96.53zM23 280v-64l85.62-85.62 119.87 119.87L249 229.74 129.13 109.87 216 23h64v257H23z"></path>
      </svg>
