<svg xmlns="http://www.w3.org/2000/svg" version="1.0" viewBox="0 0 1204 307">
  <path fill="#ff003a" d="M104 104 0 207v99h306V0h-99L105 104zm176 49v127H26v-61l42-42 43-42 60 60 60 59 10-11 11-11-59-61-60-59 43-43 42-43h62v127zm45 1v153h306V1H325v153zm280-11v116l-46-46c-42-42-46-47-45-49 1-5 0-15-2-21-3-8-10-15-18-19-5-2-7-2-15-2-7 0-10 0-13 2-7 3-15 10-18 17-2 5-3 7-3 15s1 9 4 15c6 12 17 19 30 19h9c2-1 7 3 48 45l46 46H351V27h254v116zm46 11v153h306V1h-2c-2 0-23 20-77 75l-74 74-75-74-76-75c-2 0-2 8-2 153zm280 17v110H677V61l63 63 63 63 64-63 64-64v111zm168-95a88 88 0 0 0-46 150c10 10 18 15 30 20 25 10 54 7 78-7 9-5 25-21 30-30 8-14 13-31 13-46s-5-32-13-46c-5-8-22-25-30-30a92 92 0 0 0-62-11z"/>
</svg>
