<svg xmlns="http://www.w3.org/2000/svg" version="1.0" viewBox="0 0 957 307">
  <path fill="#ff003a" d="M104 104 0 207v99h306V0h-99L105 104zm176 49v127H26v-62l42-41 42-42 60 60 60 60 12-12 11-11-60-60-60-60 43-43 42-43h62v127zm45 1v153h306V1H325v153zm280-12-1 115-46-45-45-46 1-3c3-10-2-25-11-33-7-7-12-8-23-9l-15 3c-7 3-13 10-17 17-2 5-3 7-3 15l3 15c6 12 18 19 30 19h10c2-1 7 3 49 45l46 46H351V27h254v115zm46 12v153h306V1h-2c-2 0-23 20-77 75l-74 74-75-74-76-75c-2 0-2 8-2 153zm280 17v110H677V61l63 63 63 63 64-63 64-64v111z"/>
</svg>