<svg xmlns="http://www.w3.org/2000/svg" xml:space="preserve" viewBox="5 5 114 81">
  <path fill="#ffffff" d="M68 71c-1 6-5 9-7 13-2 3-5 2-7 1-1-1 1-3 2-4 7-8 11-17 7-28-1-3-2-4-5-3-20 2-35 12-45 30-2 2-2 8-7 5-2-1 1-5 2-8 5-10 13-19 23-24 3-1 3-3 3-5 1-13-5-22-15-28-2-2-5-3-6-6v-3h3c13 8 24 17 23 35 0 2 1 3 3 2l11-3c4 0 5-1 3-4-4-7-5-14-3-22 2-6 6-9 10-13 2-1 4-2 5 0s1 4-2 6c-4 2-7 6-8 12-2 8 2 14 6 20h2l16 4c3 1 3 0 3-3 0-8 2-15 6-21 5-6 12-9 18-13 2-2 3 0 3 2-1 2-2 4-5 5-11 6-18 16-17 29 0 4 1 5 4 6 11 7 19 16 24 28 0 1 2 3 0 5-3 0-4-1-5-3a53 53 0 0 0-45-33c3 7 2 14 0 21z"/>
</svg>