<?xml version="1.0" encoding="utf-8"?>
<!-- Generator: Adobe Illustrator 27.4.1, SVG Export Plug-In . SVG Version: 6.00 Build 0)  -->
<svg version="1.1" id="Calque_1" xmlns="http://www.w3.org/2000/svg" xmlns:xlink="http://www.w3.org/1999/xlink" x="0px" y="0px"
	 viewBox="0 0 701.95 395.94" style="enable-background:new 0 0 701.95 395.94;" xml:space="preserve">
<style type="text/css">
	.st0{fill:#A4A9AD;}
	.st1{fill:#333E48;}
	.st2{fill:#0071CE;}
	.st3{fill:#FFB819;}
	.st4{fill:#FFFFFF;}
	.st5{fill:#00B3E3;}
</style>
<path class="st0" d="M107.81,74.77c-6.25,0-11.33-5.08-11.33-11.33V15.86c0-6.25,5.08-11.33,11.33-11.33s11.33,5.08,11.33,11.33
	v47.58C119.14,69.69,114.06,74.77,107.81,74.77z"/>
<path d="M107.81,4.45c-6.25,0-11.33,5.08-11.33,11.33V35.7h22.66V15.78C119.14,9.53,114.06,4.45,107.81,4.45z"/>
<path class="st0" d="M417.73,74.77c-6.25,0-11.33-5.08-11.33-11.33V15.86c0-6.25,5.08-11.33,11.33-11.33s11.33,5.08,11.33,11.33
	v47.58C429.06,69.69,424.06,74.77,417.73,74.77z"/>
<path d="M417.73,4.45c-6.25,0-11.33,5.08-11.33,11.33V35.7h22.66V15.78C429.06,9.53,424.06,4.45,417.73,4.45z"/>
<path class="st0" d="M447.27,22.66H78.28c-6.25,0-11.33-5.08-11.33-11.33S72.03,0,78.28,0h368.98c6.25,0,11.33,5.08,11.33,11.33
	S453.52,22.66,447.27,22.66z"/>
<path class="st1" d="M607.11,102.97h22.66v71.56h-22.66V102.97z"/>
<path d="M607.19,102.97v22.81c3.59,1.25,7.34,1.87,11.33,1.87s7.81-0.7,11.33-1.87v-22.81H607.19z"/>
<path class="st0" d="M595.31,92.89c0,12.81,10.39,23.2,23.2,23.2s23.2-10.39,23.2-23.2s-10.39-23.2-23.2-23.2
	S595.31,80.08,595.31,92.89z"/>
<path class="st2" d="M655.39,171.72H492.42L476.56,78.2c-2.42-14.3-16.25-26.02-30.78-26.02h-355C76.25,52.19,62.42,63.91,60,78.2
	L23.44,293.75c-2.42,14.3,7.42,26.02,21.95,26.02h610c14.53,0,26.41-11.88,26.41-26.41v-95.31
	C681.8,183.59,669.92,171.72,655.39,171.72z"/>
<path class="st3" d="M627.66,239.92h54.14v36.72h-54.14V239.92z"/>
<path class="st4" d="M636.25,276.64h-12.42c-2.89,0-5.31-2.34-5.31-5.23v-26.25c0-2.89,2.34-5.23,5.31-5.23h12.42V276.64z"/>
<path class="st3" d="M32.58,239.92l-6.25,36.72h47.11v-36.72H32.58z"/>
<path class="st4" d="M64.92,276.64h12.42c2.89,0,5.23-2.34,5.23-5.23v-26.25c0-2.89-2.34-5.23-5.23-5.23H64.92V276.64z"/>
<path d="M266.25,319.77c0-51.25-41.56-92.81-92.81-92.81s-92.81,41.56-92.81,92.81H266.25z"/>
<path class="st1" d="M97.27,319.77c0,42.07,34.1,76.17,76.17,76.17s76.17-34.1,76.17-76.17s-34.1-76.17-76.17-76.17
	S97.27,277.7,97.27,319.77z"/>
<path class="st0" d="M134.84,319.77c0,21.31,17.28,38.59,38.59,38.59c21.31,0,38.59-17.28,38.59-38.59s-17.28-38.59-38.59-38.59
	S134.84,298.45,134.84,319.77L134.84,319.77z"/>
<path d="M601.41,319.77c0-51.25-41.56-92.81-92.81-92.81c-51.25,0-92.81,41.56-92.81,92.81H601.41z"/>
<path class="st1" d="M432.42,319.77c0,42.07,34.1,76.17,76.17,76.17c42.07,0,76.17-34.1,76.17-76.17s-34.1-76.17-76.17-76.17
	C466.53,243.59,432.42,277.7,432.42,319.77z"/>
<path class="st0" d="M470,319.77c-0.01,21.31,17.26,38.6,38.57,38.61c21.31,0.01,38.6-17.26,38.61-38.57c0-0.01,0-0.03,0-0.04
	c0.01-21.31-17.26-38.6-38.57-38.61c-21.31-0.01-38.6,17.26-38.61,38.57C470,319.74,470,319.75,470,319.77z"/>
<path class="st0" d="M701.95,313.59c0,7.73-6.33,14.06-14.06,14.06h-31.64c-7.73,0-14.06-6.33-14.06-14.06v-22.81
	c0-7.73,6.33-14.06,14.06-14.06h31.64c7.73,0,14.06,6.33,14.06,14.06V313.59z M59.77,313.59c0,7.73-6.33,14.06-14.06,14.06H14.06
	C6.33,327.66,0,321.33,0,313.59v-22.81c0-7.73,6.33-14.06,14.06-14.06H45.7c7.73,0,14.06,6.33,14.06,14.06V313.59z"/>
<path class="st1" d="M309.14,94.53c0-6.64,5.47-12.11,12.11-12.11h99.14c6.64,0,12.11,5.47,12.11,12.11v54.61
	c0,6.64-5.47,12.11-12.11,12.11h-99.22c-6.64,0-12.11-5.47-12.11-12.11V94.53H309.14z M106.95,94.3c1.09-6.56,7.5-11.95,14.14-11.95
	h108.2c6.64,0,12.11,5.47,12.11,12.11v54.61c0,6.64-5.47,12.11-12.11,12.11H107.73c-6.64,0-11.17-5.39-10.08-11.95L106.95,94.3
	L106.95,94.3z"/>
<path class="st5" d="M360.7,203.52h-41.02c-6.25,0-11.33-5.08-11.33-11.33s5.08-11.33,11.33-11.33h41.02
	c6.25,0,11.33,5.08,11.33,11.33S366.95,203.52,360.7,203.52z M140.08,203.52H99.06c-6.25,0-11.33-5.08-11.33-11.33
	s5.08-11.33,11.33-11.33h41.02c6.25,0,11.33,5.08,11.33,11.33S146.33,203.52,140.08,203.52z"/>
<path d="M420.39,82.42h-99.22c-6.64,0-12.11,5.47-12.11,12.11v13.52c0-6.64,5.47-12.11,12.11-12.11h99.14
	c6.64,0,12.11,5.47,12.11,12.11V94.53C432.42,87.81,427.03,82.42,420.39,82.42z M229.22,82.42H121.09
	c-6.64,0-12.97,5.39-14.14,11.95l-2.19,12.89c1.41-6.25,7.58-11.25,13.98-11.25H229.3c6.64,0,12.11,5.47,12.11,12.11V94.61
	C241.33,87.81,235.94,82.42,229.22,82.42L229.22,82.42z"/>
</svg>
