<?xml version="1.0" encoding="utf-8"?>
<!-- Generator: Adobe Illustrator 27.4.1, SVG Export Plug-In . SVG Version: 6.00 Build 0)  -->
<svg version="1.1" xmlns="http://www.w3.org/2000/svg" xmlns:xlink="http://www.w3.org/1999/xlink" x="0px" y="0px"
	 viewBox="0 0 2252.86 1080" style="enable-background:new 0 0 2252.86 1080;" xml:space="preserve">
<style type="text/css">
	.st0{fill:#F7926B;}
	.st1{fill:#FF0000;}
	.st2{fill:#A4A9AD;}
	.st3{fill:#333E48;}
	.st4{fill:#0071CE;}
	.st5{fill:#FFB819;}
	.st6{fill:#FFFFFF;}
	.st7{fill:#00B3E3;}
</style>
<g id="Calque_1">
	<path class="st0" d="M-38.77,961.19c0,0,100.63,24.72,271.61-20.37c131.97-34.8,94.64-250,230.36-248.21
		s91.07,255.16,273.21,256.15s76.79-386.51,319.64-379.37c242.86,7.14,67.86,258.93,287.5,262.5s157.14-430.36,487.5-432.14
		c240.12-1.3,205.81,195.46,235.52,300.22c62.88,221.69,196.79,122.06,205.8,160.02v247.73l-2320.09,4.76L-38.77,961.19z"/>
</g>
<g id="Calque_2">
	<rect x="-1.37" y="825.26" class="st1" width="263.99" height="149.6"/>
	<path class="st2" d="M42.77,853.23c-2.32-0.03-4.19-1.95-4.15-4.27l0.26-17.7c0.03-2.32,1.95-4.19,4.27-4.15
		c2.32,0.03,4.19,1.95,4.15,4.27l-0.26,17.7C47.01,851.41,45.09,853.27,42.77,853.23z"/>
	<path d="M43.14,827.08c-2.32-0.03-4.24,1.83-4.27,4.15l-0.11,7.41l8.43,0.12l0.11-7.41C47.33,829.03,45.47,827.11,43.14,827.08z"/>
	<path class="st2" d="M158.05,854.9c-2.32-0.03-4.19-1.95-4.15-4.27l0.26-17.7c0.03-2.32,1.95-4.19,4.27-4.15
		c2.32,0.03,4.19,1.95,4.15,4.27l-0.26,17.7C162.29,853.07,160.41,854.94,158.05,854.9z"/>
	<path d="M158.43,828.75c-2.32-0.03-4.24,1.83-4.27,4.15l-0.11,7.41l8.43,0.12l0.11-7.41C162.62,830.7,160.78,828.78,158.43,828.75z
		"/>
	<path class="st2" d="M169.32,835.68l-137.26-1.99c-2.32-0.03-4.19-1.95-4.15-4.27c0.03-2.32,1.95-4.19,4.27-4.15l137.26,1.99
		c2.32,0.03,4.19,1.95,4.15,4.27C173.56,833.85,171.64,835.71,169.32,835.68z"/>
	<path class="st3" d="M228.35,866.41l8.43,0.12l-0.39,26.62l-8.43-0.12L228.35,866.41z"/>
	<path d="M228.37,866.41l-0.12,8.49c1.33,0.48,2.72,0.74,4.2,0.76c1.48,0.02,2.91-0.22,4.22-0.64l0.12-8.49L228.37,866.41z"/>
	<path class="st2" d="M224.01,862.6c-0.07,4.77,3.74,8.69,8.51,8.76c4.77,0.07,8.69-3.74,8.76-8.51c0.07-4.77-3.74-8.69-8.51-8.76
		S224.08,857.83,224.01,862.6z"/>
	<path class="st4" d="M245.94,892.25l-60.62-0.88l-5.4-34.87c-0.82-5.33-5.9-9.76-11.31-9.84l-132.05-1.91
		c-5.41-0.08-10.61,4.21-11.59,9.51L10.2,934.24c-0.98,5.31,2.62,9.72,8.03,9.8l226.91,3.28c5.41,0.08,9.89-4.28,9.96-9.68
		l0.51-35.45C255.69,896.81,251.34,892.32,245.94,892.25z"/>
	<path class="st5" d="M235.25,917.47l20.14,0.29l-0.2,13.66l-20.14-0.29L235.25,917.47z"/>
	<path class="st6" d="M238.25,931.17l-4.62-0.07c-1.08-0.02-1.96-0.9-1.95-1.98l0.14-9.76c0.02-1.08,0.9-1.93,2-1.92l4.62,0.07
		L238.25,931.17z"/>
	<path class="st5" d="M13.89,914.26l-2.52,13.63l17.52,0.25l0.2-13.66L13.89,914.26z"/>
	<path class="st6" d="M25.72,928.1l4.62,0.07c1.08,0.02,1.96-0.84,1.98-1.92l0.14-9.76c0.02-1.08-0.84-1.96-1.92-1.98l-4.62-0.07
		L25.72,928.1z"/>
	<path d="M100.38,945.22c0.28-19.06-14.96-34.75-34.03-35.02s-34.75,14.96-35.02,34.03L100.38,945.22z"/>
	<path class="st3" d="M37.52,944.31c-0.23,15.65,12.28,28.52,27.92,28.74s28.52-12.28,28.74-27.92s-12.28-28.52-27.92-28.74
		C50.62,916.16,37.75,928.66,37.52,944.31z"/>
	<path class="st2" d="M51.5,944.52c-0.11,7.93,6.22,14.45,14.15,14.56s14.45-6.22,14.56-14.15c0.11-7.93-6.22-14.45-14.15-14.56
		C58.14,930.25,51.62,936.59,51.5,944.52L51.5,944.52z"/>
	<path d="M225.06,947.03c0.28-19.06-14.96-34.75-34.03-35.02c-19.06-0.28-34.75,14.96-35.02,34.03L225.06,947.03z"/>
	<path class="st3" d="M162.2,946.12c-0.23,15.65,12.28,28.52,27.92,28.74c15.65,0.23,28.52-12.28,28.74-27.92
		c0.23-15.65-12.28-28.52-27.92-28.74C175.29,917.97,162.42,930.47,162.2,946.12z"/>
	<path class="st2" d="M176.18,946.32c-0.12,7.93,6.21,14.45,14.14,14.57c7.93,0.12,14.45-6.21,14.57-14.14c0-0.01,0-0.01,0-0.02
		c0.12-7.93-6.21-14.45-14.14-14.57c-7.93-0.12-14.45,6.21-14.57,14.14C176.18,946.31,176.18,946.31,176.18,946.32z"/>
	<path class="st2" d="M262.49,945.27c-0.04,2.88-2.43,5.2-5.31,5.16l-11.77-0.17c-2.88-0.04-5.2-2.43-5.16-5.31l0.12-8.49
		c0.04-2.88,2.43-5.2,5.31-5.16l11.77,0.17c2.88,0.04,5.2,2.43,5.16,5.31L262.49,945.27z M23.61,941.82
		c-0.04,2.88-2.43,5.2-5.31,5.16L6.53,946.8c-2.88-0.04-5.2-2.43-5.16-5.31l0.12-8.49c0.04-2.88,2.43-5.2,5.31-5.16l11.77,0.17
		c2.88,0.04,5.2,2.43,5.16,5.31L23.61,941.82z"/>
	<path class="st3" d="M117.55,861.67c0.04-2.47,2.1-4.48,4.57-4.44l36.88,0.53c2.47,0.04,4.48,2.1,4.44,4.57l-0.29,20.31
		c-0.04,2.47-2.1,4.48-4.57,4.44l-36.91-0.53c-2.47-0.04-4.48-2.1-4.44-4.57l0.29-20.31L117.55,861.67z M42.34,860.49
		c0.44-2.44,2.85-4.41,5.32-4.37l40.25,0.58c2.47,0.04,4.48,2.1,4.44,4.57l-0.29,20.31c-0.04,2.47-2.1,4.48-4.57,4.44l-45.22-0.65
		c-2.47-0.04-4.13-2.07-3.68-4.5L42.34,860.49L42.34,860.49z"/>
	<path class="st7" d="M136.14,902.49l-15.26-0.22c-2.32-0.03-4.19-1.95-4.15-4.27c0.03-2.32,1.95-4.19,4.27-4.15l15.26,0.22
		c2.32,0.03,4.19,1.95,4.15,4.27S138.47,902.52,136.14,902.49z M54.08,901.3l-15.26-0.22c-2.32-0.03-4.19-1.95-4.15-4.27
		c0.03-2.32,1.95-4.19,4.27-4.15l15.26,0.22c2.32,0.03,4.19,1.95,4.15,4.27C58.32,899.47,56.4,901.33,54.08,901.3z"/>
	<path d="M159,857.76l-36.91-0.53c-2.47-0.04-4.53,1.97-4.57,4.44l-0.07,5.03c0.04-2.47,2.1-4.48,4.57-4.44l36.88,0.53
		c2.47,0.04,4.48,2.1,4.44,4.57l0.07-5.03C163.45,859.83,161.47,857.8,159,857.76z M87.89,856.74l-40.22-0.58
		c-2.47-0.04-4.85,1.94-5.32,4.37l-0.88,4.78c0.56-2.32,2.88-4.14,5.26-4.11l41.12,0.59c2.47,0.04,4.48,2.1,4.44,4.57l0.07-5.03
		C92.36,858.81,90.39,856.77,87.89,856.74L87.89,856.74z"/>
</g>
</svg>
