<?xml version="1.0" encoding="iso-8859-1"?>
<!-- Uploaded to: SVG Repo, www.svgrepo.com, Generator: SVG Repo Mixer Tools -->
<svg fill="#000000" height="800px" width="800px" version="1.1" id="Layer_1" xmlns="http://www.w3.org/2000/svg" xmlns:xlink="http://www.w3.org/1999/xlink" 
	 viewBox="0 0 512 512" xml:space="preserve">
<g>
	<g>
		<path d="M493.714,0H18.286C8.187,0,0,8.187,0,18.286v475.429C0,503.813,8.187,512,18.286,512h475.429
			c10.099,0,18.286-8.187,18.286-18.286V18.286C512,8.187,503.813,0,493.714,0z M475.429,475.429H36.571V36.571h438.857V475.429z"/>
	</g>
</g>
<g>
	<g>
		<path d="M212.802,81.034H109.767c-10.099,0-18.286,8.187-18.286,18.286v103.035c0,10.1,8.187,18.287,18.286,18.287h103.035
			c10.099,0,18.286-8.187,18.286-18.286V99.319C231.088,89.221,222.9,81.034,212.802,81.034z"/>
	</g>
</g>
<g>
	<g>
		<path d="M426.039,193.213L366.551,90.178c-7.023-12.164-24.636-12.186-31.671,0l-59.488,103.035
			c-7.024,12.166,1.77,27.429,15.835,27.429h118.977C424.253,220.642,433.073,205.395,426.039,193.213z"/>
	</g>
</g>
<g>
	<g>
		<path d="M161.285,278.48c-42.04,0-76.244,34.202-76.244,76.242c0,42.041,34.203,76.244,76.244,76.244
			c42.041,0,76.243-34.203,76.243-76.243C237.528,312.683,203.325,278.48,161.285,278.48z"/>
	</g>
</g>
<g>
	<g>
		<path d="M408.672,312.759H392.68v-15.994c0-10.099-8.187-18.286-18.286-18.286h-47.358c-10.099,0-18.286,8.187-18.286,18.286
			v15.993h-15.993c-10.099,0-18.286,8.187-18.286,18.286v47.358c0,10.099,8.187,18.286,18.286,18.286h15.993v15.993
			c0,10.099,8.187,18.286,18.286,18.286h47.358c10.099,0,18.286-8.187,18.286-18.286v-15.993h15.993
			c10.099,0,18.286-8.187,18.286-18.286v-47.356C426.958,320.945,418.771,312.759,408.672,312.759z"/>
	</g>
</g>
</svg>