<?xml version="1.0" encoding="utf-8"?>
<!-- Generator: Adobe Illustrator 27.5.0, SVG Export Plug-In . SVG Version: 6.00 Build 0)  -->
<svg version="1.1" xmlns="http://www.w3.org/2000/svg" xmlns:xlink="http://www.w3.org/1999/xlink" x="0px" y="0px"
	 viewBox="0 0 800 800" style="enable-background:new 0 0 800 800;" xml:space="preserve">
<style type="text/css">
	.st0{display:none;}
	.st1{display:inline;}
	.st2{fill:#0012ED;}
	.st3{fill:#1FAD10;}
	.st4{fill:#FF9100;}
</style>
<g id="Calque_2" class="st0">
	<g class="st1">
		<g>
			<path d="M594.3,136.7H205.7c-38.1,0-69,30.9-69,69v388.7c0,38.1,30.9,69,69,69h388.7c38.1,0,69-30.9,69-69V205.7
				C663.3,167.6,632.4,136.7,594.3,136.7z"/>
		</g>
	</g>
</g>
<g id="Calque_3" class="st0">
	<g class="st1">
		<g>
			<path class="st2" d="M601.9,253.8h-55.7v-55.7c0-35.2-28.5-63.7-63.7-63.7h-165c-35.2,0-63.7,28.5-63.7,63.7v55.7h-55.7
				c-35.2,0-63.7,28.5-63.7,63.7v165c0,35.2,28.5,63.7,63.7,63.7h55.7v55.7c0,35.2,28.5,63.7,63.7,63.7h165
				c35.2,0,63.7-28.5,63.7-63.7v-55.7h55.7c35.2,0,63.7-28.5,63.7-63.7v-165C665.6,282.3,637.1,253.8,601.9,253.8z"/>
		</g>
	</g>
</g>
<g id="Calque_4">
	<g>
		<g>
			<path class="st3" d="M400,137c-145,0-263,118-263,263c0,145,118,263,263,263s263-118,263-263S545,137,400,137z"/>
		</g>
	</g>
</g>
<g id="Layer_1" class="st0">
	<g class="st1">
		<g>
			<path class="st4" d="M658,559.8L455.5,171.1c-23.9-45.9-83.9-46-107.8,0L145.1,559.8c-23.9,45.9,6,103.5,53.9,103.5h405.1
				C652,663.3,682,605.8,658,559.8z"/>
		</g>
	</g>
</g>
</svg>
