<?xml version="1.0" ?>

<!-- Uploaded to: SVG Repo, www.svgrepo.com, Generator: SVG Repo Mixer Tools -->
<svg width="800px" height="800px" viewBox="0 0 281.25 281.25" id="svg2" version="1.1" xml:space="preserve" xmlns="http://www.w3.org/2000/svg" xmlns:cc="http://creativecommons.org/ns#" xmlns:dc="http://purl.org/dc/elements/1.1/" xmlns:rdf="http://www.w3.org/1999/02/22-rdf-syntax-ns#" xmlns:svg="http://www.w3.org/2000/svg">

<defs id="defs4"/>

<g id="layer1" transform="translate(6402.3564,-3106.6404)">

<g id="g16574" transform="translate(-2268.8534,-329.60968)">

<path d="m -3992.8789,3467.9752 a 4.6875,4.6875 0 0 0 -4.6875,4.6875 v 20.0592 c -4.9588,2.7388 -10.5019,4.4678 -16.1334,5.0116 -4.8306,0.4665 -10.1878,0.055 -15.9997,0.3809 -5.8567,0.3283 -12.347,1.5059 -17.807,5.5353 -5.7306,4.2289 -9.161,10.9341 -9.4281,17.9809 -0.2664,7.025 2.6041,13.8401 7.6373,18.6457 3.0643,2.9257 6.837,5.0371 10.9369,6.1175 4.1001,1.0805 8.4286,1.1038 12.5409,0.059 4.9468,-1.2582 9.3501,-4.0292 12.6489,-7.7985 1.4496,1.871 3.1579,3.5443 5.0812,4.9585 4.3978,3.2337 9.7519,4.9933 15.2105,4.9933 5.4586,0 10.8146,-1.7596 15.2124,-4.9933 1.9233,-1.4142 3.6316,-3.0875 5.0812,-4.9585 3.2987,3.7693 7.7025,6.5386 12.6489,7.7967 4.1124,1.0459 8.4425,1.0241 12.5428,-0.057 4.0999,-1.0804 7.8707,-3.1937 10.935,-6.1194 5.0332,-4.8056 7.9055,-11.6189 7.6392,-18.6438 -0.2671,-7.047 -3.7012,-13.752 -9.4318,-17.9809 -5.46,-4.0293 -11.9485,-5.207 -17.8052,-5.5353 -5.8119,-0.3258 -11.1691,0.086 -15.9997,-0.3809 -5.632,-0.5439 -11.176,-2.2724 -16.1353,-5.0116 v -20.0592 a 4.6875,4.6875 0 0 0 -4.6875,-4.6875 z m 0,32.8693 c 6.1232,3.4127 12.9323,5.5454 19.9182,6.2201 5.9188,0.5716 11.4062,0.1333 16.3769,0.412 4.9258,0.2761 9.5349,1.3337 12.7643,3.717 3.279,2.4197 5.4717,6.6501 5.6287,10.7923 0.1579,4.1642 -1.6772,8.5832 -4.7425,11.51 -1.9024,1.8165 -4.3113,3.1647 -6.8518,3.8342 -2.5402,0.6694 -5.2997,0.6816 -7.8424,0.035 -4.7962,-1.2198 -9.1202,-5.1327 -10.8123,-9.7833 a 4.6875,4.6875 0 0 0 -0.011,-0.02 4.6875,4.6875 0 0 0 -0.6903,-1.2433 4.6875,4.6875 0 0 0 -0.018,-0.027 4.6875,4.6875 0 0 0 -1.0584,-0.987 4.6875,4.6875 0 0 0 -0.02,-0.013 4.6875,4.6875 0 0 0 -1.2085,-0.5804 4.6875,4.6875 0 0 0 -0.062,-0.011 4.6875,4.6875 0 0 0 -0.3003,-0.051 4.6875,4.6875 0 0 0 -1.04,-0.1282 4.6875,4.6875 0 0 0 -0.4834,0.042 4.6875,4.6875 0 0 0 -0.8643,0.1684 4.6875,4.6875 0 0 0 -0.2508,0.049 4.6875,4.6875 0 0 0 -0.2307,0.1282 4.6875,4.6875 0 0 0 -0.7691,0.4248 4.6875,4.6875 0 0 0 -0.3973,0.282 4.6875,4.6875 0 0 0 -0.672,0.7178 4.6875,4.6875 0 0 0 -0.2436,0.2911 4.6875,4.6875 0 0 0 -0.5584,1.1627 c -1.0178,3.2584 -3.1533,6.2525 -5.9033,8.2746 -2.7502,2.0223 -6.2453,3.1695 -9.6589,3.1695 -3.4136,0 -6.9067,-1.1472 -9.6569,-3.1695 -2.75,-2.0221 -4.8856,-5.0162 -5.9034,-8.2746 a 4.6875,4.6875 0 0 0 -0.027,-0.06 4.6875,4.6875 0 0 0 -0.4578,-0.9869 4.6875,4.6875 0 0 0 -0.068,-0.1081 4.6875,4.6875 0 0 0 -0.6977,-0.8367 4.6875,4.6875 0 0 0 -0.09,-0.086 4.6875,4.6875 0 0 0 -0.9045,-0.6372 4.6875,4.6875 0 0 0 -0.082,-0.05 4.6875,4.6875 0 0 0 -0.5439,-0.2398 4.6875,4.6875 0 0 0 -0.238,-0.046 4.6875,4.6875 0 0 0 -0.8935,-0.1739 4.6875,4.6875 0 0 0 -0.4578,-0.042 4.6875,4.6875 0 0 0 -1.0858,0.1337 4.6875,4.6875 0 0 0 -0.2564,0.044 4.6875,4.6875 0 0 0 -0.07,0.013 4.6875,4.6875 0 0 0 -1.17,0.5639 4.6875,4.6875 0 0 0 -0.2545,0.2143 4.6875,4.6875 0 0 0 -0.7489,0.6976 4.6875,4.6875 0 0 0 -0.2765,0.3918 4.6875,4.6875 0 0 0 -0.4321,0.7782 4.6875,4.6875 0 0 0 -0.1245,0.2253 c -1.6921,4.6506 -6.0162,8.5635 -10.8124,9.7833 -2.5429,0.6465 -5.3021,0.6344 -7.8424,-0.035 -2.5405,-0.6695 -4.9493,-2.0177 -6.8518,-3.8342 -3.0654,-2.9268 -4.9004,-7.3458 -4.7425,-11.51 0.157,-4.1422 2.3498,-8.3727 5.6287,-10.7923 3.2295,-2.3833 7.8365,-3.4409 12.7624,-3.717 4.9707,-0.2787 10.4601,0.1596 16.3788,-0.412 6.9864,-0.6748 13.7965,-2.8069 19.9201,-6.2201 z" id="path1457" style="color:#000000;fill:#333333;fill-opacity:1;stroke-linecap:round;stroke-linejoin:round;-inkscape-stroke:none"/>

<path d="m -4056.541,3518.1883 c -8.2416,2.72 -15.6488,7.7712 -21.156,14.5037 -6.2006,7.5805 -9.8477,17.0953 -10.3033,26.8781 -0.7054,15.1475 5.8932,28.7697 11.8249,41.0797 11.7246,24.3316 23.9844,49.9067 44.5899,69.1077 7.8465,7.3117 17.485,14.0592 29.0661,15.6701 3.1956,0.4446 6.4387,0.4563 9.6405,0.068 3.2024,0.3888 6.4462,0.3769 9.6424,-0.068 11.581,-1.6109 21.2195,-8.3584 29.0661,-15.6701 20.6054,-19.201 32.8654,-44.7761 44.5899,-69.1077 5.9317,-12.31 12.5303,-25.9322 11.8249,-41.0797 -0.4555,-9.7828 -4.1047,-19.2976 -10.3051,-26.8781 -5.5067,-6.7319 -12.9119,-11.7817 -21.1524,-14.5019 0.2118,1.1321 0.3497,2.2804 0.3937,3.4405 0.083,2.1966 -0.1733,4.3634 -0.6738,6.4637 5.4779,2.307 10.4276,5.9496 14.176,10.5322 4.8949,5.9841 7.8362,13.6566 8.1958,21.3794 0.563,12.0909 -4.999,24.3206 -10.9039,36.5753 -11.72,24.3223 -23.6291,48.6994 -42.5354,66.3171 -7.1207,6.6353 -15.2848,12.0364 -23.9667,13.2441 -2.5492,0.3546 -5.156,0.3546 -7.7051,0 a 4.6875,4.6875 0 0 0 -0.6482,0.081 4.6875,4.6875 0 0 0 -0.6427,-0.081 c -2.5492,0.3546 -5.156,0.3546 -7.7051,0 -8.682,-1.2077 -16.8462,-6.6088 -23.9666,-13.2441 -18.9065,-17.6177 -30.8155,-41.9948 -42.5354,-66.3171 -5.9051,-12.2547 -11.4689,-24.4844 -10.9058,-36.5753 0.3596,-7.7228 3.3027,-15.3953 8.1976,-21.3794 3.749,-4.5832 8.6991,-8.2271 14.1779,-10.5341 -0.4999,-2.0997 -0.7571,-4.2661 -0.6738,-6.4618 0.044,-1.1607 0.1818,-2.3097 0.3936,-3.4423 z m 18.4204,61.8896 a 4.6875,4.6875 0 0 0 -4.6875,4.6875 4.6875,4.6875 0 0 0 4.6875,4.6875 h 8.8001 a 4.6875,4.6875 0 0 0 4.6875,-4.6875 4.6875,4.6875 0 0 0 -4.6875,-4.6875 z m 39.8127,0 a 4.6875,4.6875 0 0 0 -4.6875,4.6875 4.6875,4.6875 0 0 0 4.6875,4.6875 h 8.8 a 4.6875,4.6875 0 0 0 4.6875,-4.6875 4.6875,4.6875 0 0 0 -4.6875,-4.6875 z m 39.8126,0 a 4.6875,4.6875 0 0 0 -4.6875,4.6875 4.6875,4.6875 0 0 0 4.6875,4.6875 h 8.8 a 4.6875,4.6875 0 0 0 4.6875,-4.6875 4.6875,4.6875 0 0 0 -4.6875,-4.6875 z m -59.7199,28.4711 a 4.6875,4.6875 0 0 0 -4.6875,4.6875 4.6875,4.6875 0 0 0 4.6875,4.6875 h 8.8019 a 4.6875,4.6875 0 0 0 4.6875,-4.6875 4.6875,4.6875 0 0 0 -4.6875,-4.6875 z m 39.8127,0 a 4.6875,4.6875 0 0 0 -4.6875,4.6875 4.6875,4.6875 0 0 0 4.6875,4.6875 h 8.8 a 4.6875,4.6875 0 0 0 4.6875,-4.6875 4.6875,4.6875 0 0 0 -4.6875,-4.6875 z m -19.9054,28.4692 a 4.6875,4.6875 0 0 0 -4.6875,4.6875 4.6875,4.6875 0 0 0 4.6875,4.6875 h 8.8 a 4.6875,4.6875 0 0 0 4.6875,-4.6875 4.6875,4.6875 0 0 0 -4.6875,-4.6875 z" id="path1475" style="color:#000000;fill:#ff4d4c;fill-opacity:1;stroke-linecap:round;stroke-linejoin:round;-inkscape-stroke:none"/>

</g>

</g>

</svg>