<?xml version="1.0" standalone="no"?>
<!DOCTYPE svg PUBLIC "-//W3C//DTD SVG 20010904//EN"
 "http://www.w3.org/TR/2001/REC-SVG-20010904/DTD/svg10.dtd">
<svg version="1.0" xmlns="http://www.w3.org/2000/svg" viewBox="0 0 1280.000000 1280.000000">
<g transform="translate(0.000000,1280.000000) scale(0.100000,-0.100000)"
fill="#000000" stroke="none">
<path d="M4525 12790 c-16 -5 -46 -23 -65 -39 l-35 -29 23 -44 c16 -32 44 -59
95 -95 113 -79 415 -322 508 -411 101 -95 137 -157 169 -287 44 -182 37 -221
-56 -325 -130 -144 -318 -399 -389 -528 -25 -46 -48 -75 -61 -78 -27 -7 -70
15 -106 53 -37 39 -108 168 -108 195 0 13 9 55 20 93 36 126 25 158 -70 204
-45 22 -59 35 -87 86 -18 33 -42 89 -53 124 -19 61 -20 76 -10 282 12 257 10
268 -87 421 -33 51 -72 114 -87 141 -18 32 -40 54 -69 69 -115 60 -320 -10
-384 -131 -35 -67 -31 -133 18 -292 68 -227 49 -198 242 -363 168 -144 173
-149 225 -243 28 -53 52 -105 52 -115 0 -10 -12 -42 -27 -71 -32 -64 -36 -126
-8 -156 10 -12 50 -38 88 -58 102 -54 117 -81 130 -238 15 -178 28 -171 -215
-112 -106 26 -214 51 -239 57 -70 14 -319 32 -362 26 -43 -7 -92 11 -124 45
-12 13 -49 64 -83 114 -84 123 -98 176 -106 384 -8 186 -2 238 52 505 40 199
42 234 13 270 -33 42 -58 34 -162 -54 -194 -163 -410 -431 -580 -721 -86 -146
-329 -643 -361 -739 -16 -47 -36 -93 -45 -102 -9 -9 -88 -46 -176 -83 -224
-92 -574 -268 -742 -373 -273 -171 -540 -392 -684 -565 -65 -77 -64 -126 2
-149 31 -11 195 13 303 45 l111 32 265 -1 c258 0 266 -1 325 -25 96 -40 230
-132 262 -180 27 -41 28 -46 34 -233 7 -201 14 -247 74 -469 19 -70 35 -145
35 -167 0 -73 -53 -84 -220 -49 -46 9 -63 20 -107 64 -28 29 -59 68 -68 86
-23 45 -55 79 -84 90 -18 7 -39 2 -92 -22 -82 -38 -115 -36 -218 11 -61 28
-77 42 -119 99 -27 36 -95 114 -151 173 -122 128 -185 164 -356 204 -159 37
-213 41 -261 16 -109 -56 -185 -217 -155 -328 24 -91 67 -128 288 -248 l122
-66 88 0 c89 1 295 14 388 26 43 5 55 2 88 -20 21 -14 49 -26 62 -26 53 0 71
-16 96 -85 39 -112 79 -138 179 -116 144 33 140 33 197 6 117 -53 208 -148
185 -192 -6 -10 -50 -41 -99 -68 -148 -83 -251 -157 -418 -300 -88 -76 -175
-144 -193 -152 -30 -12 -46 -12 -133 2 -55 8 -124 25 -155 36 -86 32 -193 110
-306 222 -119 118 -191 211 -273 352 -61 106 -145 198 -173 193 -24 -5 -68
-91 -88 -172 -21 -85 -15 -214 22 -460 59 -397 148 -717 300 -1081 103 -249
100 -238 87 -282 -6 -21 -38 -102 -71 -179 -213 -499 -347 -1078 -346 -1494 0
-139 3 -159 22 -197 23 -43 47 -63 78 -63 26 0 113 96 154 169 88 158 156 248
280 369 206 203 248 228 459 268 84 17 91 17 135 0 27 -11 86 -52 142 -102
128 -112 358 -279 470 -342 104 -59 129 -82 119 -111 -9 -30 -108 -114 -175
-150 -64 -34 -104 -38 -165 -16 -22 8 -68 15 -101 15 -74 0 -110 -23 -120 -76
-8 -45 -40 -69 -134 -98 -151 -48 -239 -59 -423 -53 l-168 5 -52 -27 c-341
-183 -367 -207 -367 -340 0 -82 31 -159 86 -216 84 -87 158 -95 351 -40 212
60 218 64 405 282 125 146 137 156 207 189 101 48 129 52 188 23 29 -14 67
-23 95 -24 56 0 85 23 121 99 51 105 83 122 248 131 108 6 126 5 138 -9 11
-13 5 -50 -43 -243 -62 -252 -76 -349 -76 -528 0 -66 -4 -125 -8 -131 -13 -19
-175 -135 -224 -160 -83 -42 -158 -53 -378 -56 l-205 -2 -180 43 c-232 56
-281 60 -318 31 -40 -32 -37 -76 11 -137 108 -135 366 -354 612 -518 163 -109
295 -177 678 -350 155 -70 293 -136 307 -146 13 -11 33 -45 45 -77 41 -109
143 -338 217 -485 188 -377 405 -687 658 -944 101 -103 127 -124 165 -133 51
-14 68 -7 89 36 13 27 11 47 -29 239 -42 201 -44 219 -48 415 -4 227 5 296 54
393 32 63 90 148 137 202 l35 40 143 1 c175 2 298 20 533 78 193 48 216 48
238 1 8 -19 8 -46 -1 -112 -20 -142 -37 -168 -163 -249 -102 -66 -114 -108
-57 -200 28 -46 23 -95 -21 -191 -27 -60 -42 -79 -93 -119 -70 -54 -202 -169
-261 -228 -53 -55 -90 -138 -127 -291 -47 -198 -41 -245 40 -318 52 -47 86
-64 165 -82 88 -20 155 -5 215 49 25 23 103 152 171 284 l43 83 -18 198 c-23
259 -19 335 26 423 33 67 34 68 95 88 117 39 139 84 105 215 -12 43 -21 89
-21 101 0 27 62 120 132 198 69 76 79 73 143 -41 106 -189 170 -275 373 -503
51 -57 95 -114 98 -127 9 -33 -35 -271 -61 -328 -28 -64 -76 -124 -216 -269
-100 -104 -135 -133 -289 -234 -238 -156 -250 -166 -250 -206 0 -42 21 -60 95
-82 50 -14 84 -16 200 -11 489 22 992 144 1518 368 75 33 146 59 158 59 11 0
82 -27 157 -59 451 -193 847 -300 1302 -351 275 -31 452 -21 487 26 15 20 8
78 -13 108 -18 26 -139 113 -204 146 -84 43 -188 120 -264 196 -106 106 -244
270 -262 312 -9 20 -27 91 -41 157 -32 160 -29 169 90 288 118 117 176 195
312 420 77 128 116 183 130 185 40 6 205 -200 205 -255 0 -15 -9 -60 -21 -102
-23 -82 -21 -141 6 -171 9 -10 45 -26 80 -35 76 -21 90 -35 98 -93 3 -26 15
-54 28 -68 27 -29 28 -48 10 -223 -7 -68 -11 -176 -9 -240 l3 -116 75 -140
c114 -212 166 -258 290 -259 109 0 217 61 261 147 33 64 34 121 5 232 -45 168
-67 228 -100 273 -17 23 -106 108 -198 188 -118 102 -168 151 -168 166 0 12
-16 49 -35 84 -19 34 -35 70 -35 78 0 9 11 39 25 66 31 61 33 127 6 161 -10
14 -49 39 -85 58 -106 53 -120 81 -130 262 -5 89 -4 108 9 119 18 15 20 14
225 -40 140 -37 288 -57 480 -65 80 -4 160 -11 177 -17 25 -7 49 -33 107 -114
101 -141 117 -186 126 -354 5 -74 11 -157 15 -185 7 -60 -10 -173 -59 -385
-42 -183 -44 -215 -13 -261 46 -69 87 -50 251 115 315 317 602 777 820 1313
84 206 53 177 301 279 524 215 973 500 1288 817 133 133 156 171 132 216 -29
57 -51 56 -327 -5 l-213 -46 -195 6 c-212 7 -283 17 -345 49 -78 39 -216 139
-234 168 -15 24 -19 60 -24 197 -6 187 -18 259 -84 516 -45 172 -46 179 -28
192 39 29 262 5 313 -33 15 -11 41 -46 59 -79 41 -76 93 -124 133 -124 17 0
57 14 90 30 33 16 67 30 77 30 10 0 38 -14 62 -30 24 -17 56 -30 70 -30 18 0
38 -14 67 -47 205 -231 250 -276 320 -322 41 -28 94 -55 117 -61 23 -6 83 -24
132 -41 134 -43 208 -37 290 25 46 35 96 136 102 204 12 131 -37 198 -219 298
-173 95 -178 96 -353 95 -82 0 -193 -6 -245 -12 -89 -10 -99 -9 -150 11 -30
12 -71 27 -90 32 -50 14 -57 23 -75 86 -22 76 -69 122 -122 122 -22 0 -62 -7
-89 -15 -81 -25 -129 -20 -202 21 -102 58 -166 133 -149 176 2 7 54 41 115 76
148 84 245 154 409 298 173 151 183 158 239 156 71 -3 254 -42 296 -63 84 -43
303 -247 394 -366 30 -40 83 -121 118 -180 82 -139 140 -203 185 -203 29 0 34
5 54 48 20 44 22 62 22 252 -1 236 -12 347 -60 586 -61 302 -150 585 -278 883
-38 91 -70 177 -69 192 0 15 17 65 37 111 148 335 264 703 324 1023 38 203 51
341 51 543 0 185 -1 200 -22 240 -26 49 -58 63 -97 41 -37 -21 -116 -122 -166
-214 -74 -135 -125 -196 -324 -388 -122 -118 -191 -155 -357 -188 -157 -32
-166 -29 -287 91 -114 114 -211 185 -415 306 -172 102 -182 110 -182 141 0 36
74 109 149 146 71 35 123 39 276 22 90 -10 108 3 135 100 22 76 38 95 83 95
16 0 53 13 82 30 l52 30 99 -15 c55 -9 164 -18 244 -22 l145 -6 140 72 c166
85 225 126 262 183 25 37 28 51 27 118 -1 90 -31 166 -88 223 -82 82 -145 88
-340 33 -218 -62 -221 -64 -411 -281 -131 -149 -134 -152 -229 -200 l-96 -48
-68 32 c-117 53 -167 37 -222 -73 -44 -90 -76 -113 -186 -132 -100 -18 -168
-14 -192 10 -15 15 -13 29 26 184 58 230 62 258 76 496 l12 209 44 39 c67 60
183 134 244 157 44 16 97 23 253 31 227 12 258 10 443 -35 212 -52 280 -61
315 -44 16 8 34 27 39 42 16 45 -23 104 -153 230 -188 180 -370 320 -596 457
-165 99 -669 348 -787 389 -53 18 -102 38 -107 45 -5 6 -40 83 -76 171 -237
571 -520 1018 -849 1344 -140 140 -155 149 -198 124 -59 -34 -60 -55 -17 -268
49 -240 60 -368 50 -560 -10 -173 -25 -226 -99 -349 -53 -88 -108 -141 -161
-156 -20 -5 -92 -10 -161 -10 -154 0 -253 -15 -490 -76 -102 -26 -193 -45
-203 -41 -14 5 -17 20 -17 82 0 80 23 206 45 240 7 11 42 38 79 59 75 44 126
96 126 129 0 12 -13 49 -30 82 -16 33 -30 74 -30 90 0 49 105 199 189 268 101
84 211 203 253 272 19 33 53 114 73 180 58 181 52 265 -25 344 -48 49 -97 75
-173 91 -78 16 -151 -5 -211 -60 -44 -40 -154 -228 -188 -319 -22 -60 -24
-317 -3 -446 15 -90 12 -122 -17 -200 -23 -62 -47 -84 -106 -101 -135 -39
-150 -74 -102 -234 26 -88 9 -134 -89 -246 -76 -87 -95 -101 -117 -83 -8 6
-60 87 -116 180 -125 207 -206 317 -320 431 -52 53 -89 99 -93 116 -6 27 15
177 33 237 14 47 61 135 101 190 107 148 215 243 455 402 168 112 190 130 207
168 24 53 18 69 -36 100 -37 22 -53 25 -147 25 -225 0 -613 -51 -863 -114 -76
-20 -289 -93 -510 -176 l-380 -142 -55 20 c-30 11 -134 52 -230 91 -465 190
-973 306 -1395 316 -94 3 -183 0 -200 -5z m-595 -3884 c0 -2 -8 -10 -17 -17
-16 -13 -17 -12 -4 4 13 16 21 21 21 13z m5167 -1668 c-2 -18 -4 -4 -4 32 0
36 2 50 4 33 2 -18 2 -48 0 -65z m3128 -903 c-36 -62 -41 -57 -8 8 16 29 30
49 31 45 2 -5 -8 -28 -23 -53z m-45 -75 c-6 -11 -13 -20 -16 -20 -2 0 0 9 6
20 6 11 13 20 16 20 2 0 0 -9 -6 -20z m-30 -50 c-6 -11 -13 -20 -16 -20 -2 0
0 9 6 20 6 11 13 20 16 20 2 0 0 -9 -6 -20z m-30 -50 c-6 -11 -13 -20 -16 -20
-2 0 0 9 6 20 6 11 13 20 16 20 2 0 0 -9 -6 -20z m-6260 -3240 c-6 -11 -13
-20 -16 -20 -2 0 0 9 6 20 6 11 13 20 16 20 2 0 0 -9 -6 -20z m-180 -283 c0
-2 -10 -12 -22 -23 l-23 -19 19 23 c18 21 26 27 26 19z m-50 -41 c0 -5 -149
-90 -220 -126 -82 -41 -33 -9 92 61 133 74 128 71 128 65z m-270 -151 c0 -6
-197 -105 -207 -104 -6 0 194 106 205 108 1 1 2 -1 2 -4z m-260 -130 c-25 -13
-49 -24 -55 -24 -5 0 10 11 35 24 25 13 50 24 55 24 6 0 -10 -11 -35 -24z
m-80 -35 c-8 -5 -19 -10 -25 -10 -5 0 -3 5 5 10 8 5 20 10 25 10 6 0 3 -5 -5
-10z m-100 -40 c-8 -5 -19 -10 -25 -10 -5 0 -3 5 5 10 8 5 20 10 25 10 6 0 3
-5 -5 -10z m-50 -20 c-8 -5 -19 -10 -25 -10 -5 0 -3 5 5 10 8 5 20 10 25 10 6
0 3 -5 -5 -10z m-55 -20 c-27 -12 -43 -12 -25 0 8 5 22 9 30 9 10 0 8 -3 -5
-9z m2559 -1075 c-32 -22 -753 -454 -778 -465 -16 -8 -17 -8 -6 1 34 25 786
477 795 478 5 1 0 -6 -11 -14z"/>
</g>
</svg>
