<svg xmlns="http://www.w3.org/2000/svg" xml:space="preserve" viewBox="0 0 400 400">
  <path fill="#ffffff" d="m96 376-1-11c0-2 0-4-2-5s-3 1-4 3l-10 9-4 4c-3 2-6 2-9 0-2-3-2-6-1-8l9-12 3-3 2-4c-1-2-3-2-4-2-4 1-9 0-13-1s-7-3-7-7c1-5 4-6 8-6l20-4c3-1 5-2 4-5v-7l-1-9c0-4 1-8 5-9 5-1 7 3 9 7l3 11c2 4 3 4 6 1l18-23 2-3c-1-2-3-1-4-1h-10c-4-1-6-3-6-7-1-4 2-6 5-6l24-6c5-1 10-3 14-8l8-9 2-4c-1-2-3-1-4-1l-9 1c-3 0-5-1-6-4s0-5 2-7c6-5 13-6 20-8l14-3c2 0 4-1 5-3 3-3 3-4-1-6-5-2-9-3-13 0l-24 9c-3 1-7 2-10 0-3 0-5-2-5-4 0-3 1-5 3-6 4-3 9-4 13-6 2 0 4 0 4-2 1-3-2-3-4-4l-20-8h-7c-8 4-17 7-25 9-4 2-8 3-10-2-1-3 0-8 5-10l9-4c2 0 3-1 3-2 0-2-1-2-2-3l-29-13c-2-1-3-2-5 0-1 1 0 3 1 4l4 9c1 4 2 8-2 11-4 2-8 0-10-3l-11-15c-2-3-4-4-7-2-6 2-11 5-18 5-7 1-11-1-12-5-1-6 1-10 8-13l9-3 3-2c0-2-2-2-3-3l-13-6-6-5c-2-2-3-4-2-7 2-3 5-4 8-3l9 3 6 3c2 0 5 3 7 1 1-2 0-4-1-6l-2-13c0-3 2-6 6-6 3-1 5 1 7 4l10 19c1 3 3 4 7 2l14-5c4-1 8-1 10 2 2 4-1 7-3 10l-11 7c-3 2-3 4 1 6l26 10c2 1 3 2 4 1 2-2 1-3 0-4l-2-11c0-3 1-6 4-7s6 1 7 3l13 21c2 6 6 10 12 12l11 5c2 1 3 2 5 0 1-1 0-2-1-4l-3-7c-1-3-1-6 2-8s6-1 8 1c8 7 13 17 18 26 3 5 7 7 12 9 1 0 3 1 4-1 1-3 0-12-3-14-7-6-13-14-19-21-3-2-4-5-5-9 0-2 1-5 3-6 3-2 5-1 7 0l10 10c1 2 2 4 4 3s1-3 2-4v-22c0-2-1-5-3-6l-18-21c-3-3-5-6-2-10 3-3 8-3 12 1l5 5c2 2 3 4 6 5l1-20 1-15c0-2 1-4-1-5s-3 1-5 2l-7 7c-3 3-6 5-10 2s-3-7-1-10l10-15c2-3 2-6-1-9-5-4-10-9-12-16-3-5-2-9 2-12 4-2 8-2 12 2l8 8c1 1 2 3 4 2l1-4 1-15 1-5c1-3 3-5 7-5s5 3 6 6v17c0 2-1 5 1 6s4-2 5-3c4-3 7-5 11-6s7-1 9 2 1 6-1 8l-13 15c-4 5-5 5 0 10l6 7 3 3c2 3 5 7 2 10-3 4-8 2-11 0l-10-6c-3-2-5-1-5 3v29l1 3c2 1 2 0 3-1l9-7c3-1 6-1 9 2 2 2 1 5 0 7l-15 19c-4 5-7 11-7 18v10c0 2-1 4 1 5s3-1 4-2l4-5c3-3 7-4 10-2 3 3 3 7 1 10-5 9-11 17-17 24-3 4-5 8-4 12 0 3 1 4 4 4 5-2 9-4 10-9a87 87 0 0 1 16-29c3-2 6-4 9-2s3 6 2 9l-6 10c-1 2-2 3-1 5 2 2 4 0 5 0l22-8c2-1 4-3 4-6l12-24c2-3 4-6 8-4 4 1 5 5 5 9l-5 10c0 1-2 3-1 4 2 2 3 0 5 0l28-9c2-1 4-1 4-4 0-2-2-2-4-3l-9-3c-3-2-6-5-5-9 1-5 5-5 9-5l17 4c5 1 7-1 8-5 3-6 6-12 11-17 4-4 8-5 11-2 4 2 5 7 3 12l-4 10c-1 1-2 3-1 4h4l14-4 5-2c4 0 7 1 8 5s-1 6-4 8c-5 3-11 5-16 6-2 1-4 1-4 3s2 3 3 3c4 3 8 5 11 9 2 2 4 6 1 9-2 3-5 3-8 2l-21-7c-3-2-5-1-6 2a180 180 0 0 1-7 16c-2 2-5 5-9 3-3-1-4-5-4-8l3-13c1-4 0-5-4-4l-28 11-2 2c0 2 1 2 2 3l8 4c3 2 6 5 4 10-3 4-6 3-10 3l-21-7c-5-2-11-3-16-1l-14 5c-1 1-3 1-3 3s2 2 3 2l8 4c3 2 5 4 4 7-1 4-4 4-7 4-11 0-21-2-31-6-2-1-5-2-7-1-3 1-7 1-8 5-1 2 5 8 8 9 9 0 17 2 26 4 4 1 8 2 11 5 2 2 3 5 2 7-1 3-3 4-6 4-5 0-9-2-14-3h-5c-2 2 0 4 1 5l14 18c2 3 4 3 6 4 9 0 18 3 26 5 4 1 8 3 7 7-1 5-4 6-8 7l-11-2h-4c-1 2 0 3 1 4l17 26c1 1 2 4 4 3s2-3 2-5l2-11c1-4 3-6 7-6s5 3 6 6l1 18c1 6 1 7 8 8 6 1 12 2 18 5 5 3 7 7 5 11-1 4-5 7-11 6l-12-2c-4-1-4 1-3 3a377 377 0 0 0 11 19c1 3 1 6-2 8s-6 1-9-1l-9-13c-1-2-2-5-5-4-3 0-2 3-3 6-1 4-2 8-5 11-2 2-5 4-8 2-3-1-4-4-4-7l2-22c0-3-1-5-4-5l-12-2-9-3c-3-3-3-7 1-10l8-2h10c3 0 4-2 2-5l-18-24c-1-1-1-2-3-2l-1 3-4 11c-1 3-4 4-7 3-4 0-4-3-5-6l1-21c3-14-6-22-12-31-2-3-4-2-4 1l-2 9c0 3-2 6-6 6-3 0-5-2-6-5l-2-10v-23c1-4-1-8-4-11-2-3-3-3-5-1-4 4-6 8-5 13 2 8 2 17 2 26 1 3 0 6-2 9-1 2-3 4-6 4-3-1-4-3-5-5-2-5-1-9-1-14 0-2 1-4-2-5-2-1-3 2-4 3l-14 17c-2 2-2 5-2 7 2 9 1 18 2 27 0 3-1 7-6 8-3 0-7-3-8-7l-1-11-1-3c-1-1-2 0-3 1-7 9-14 17-22 24-1 1-2 3-1 4 1 2 2 1 4 1l10-1c5 0 9 0 10 5s-3 7-6 9l-17 5c-4 1-5 3-5 8 1 6 2 13 0 19-1 4-3 8-8 9-4 0-8-3-9-8z"/>
</svg>
