<?xml version="1.0" standalone="no"?>
<!DOCTYPE svg PUBLIC "-//W3C//DTD SVG 20010904//EN"
 "http://www.w3.org/TR/2001/REC-SVG-20010904/DTD/svg10.dtd">
<svg version="1.0" xmlns="http://www.w3.org/2000/svg" viewBox="0 0 1280.000000 1280.000000"
>
<g transform="translate(0.000000,1280.000000) scale(0.100000,-0.100000)"
fill="#000000" stroke="none">
<path d="M6477 12438 c-37 -125 -305 -1048 -369 -1268 -27 -96 -54 -179 -58
-183 -7 -8 -92 152 -521 980 -153 296 -236 446 -240 435 -7 -20 -3 24 -79
-862 -33 -388 -61 -716 -63 -729 -1 -19 -108 108 -516 618 -282 353 -515 640
-516 639 -1 -2 38 -361 86 -798 49 -437 88 -803 86 -812 -1 -12 -192 143 -626
508 -342 289 -624 524 -626 522 -2 -2 17 -64 40 -138 24 -74 100 -315 170
-535 70 -220 160 -505 201 -634 41 -128 73 -237 72 -242 -2 -5 -322 167 -712
381 -390 215 -711 388 -713 386 -2 -2 169 -319 382 -705 212 -385 388 -707
391 -714 3 -9 -285 78 -773 233 -428 136 -780 246 -781 244 -2 -1 232 -283
521 -626 288 -343 519 -624 512 -626 -6 -2 -360 36 -786 83 -426 47 -785 85
-798 83 -22 -3 157 -150 1232 -1010 l22 -18 -26 0 c-14 0 -340 -27 -725 -60
-384 -33 -733 -63 -774 -67 -41 -3 -83 -9 -92 -12 -12 -4 166 -102 560 -306
682 -353 862 -448 862 -455 0 -3 -211 -65 -468 -139 -600 -173 -1076 -312
-1081 -317 -2 -2 -2 -6 0 -8 2 -2 209 -64 459 -136 391 -113 1025 -299 1084
-316 13 -4 -78 -56 -295 -168 -394 -204 -888 -460 -1033 -537 -91 -48 -106
-59 -85 -63 19 -4 1282 -114 1532 -133 37 -3 66 -9 65 -13 -2 -5 -259 -214
-573 -465 -711 -571 -695 -558 -692 -560 1 -1 274 29 607 66 683 77 1011 111
1015 107 2 -2 -83 -104 -187 -228 -443 -525 -842 -1002 -852 -1018 -3 -6 20
-2 51 8 102 34 1219 387 1391 440 57 17 105 30 107 28 2 -2 -86 -168 -197
-368 -356 -647 -577 -1054 -574 -1057 2 -2 241 128 532 288 686 378 890 489
899 489 3 0 4 -4 1 -8 -6 -10 -303 -943 -412 -1295 -40 -131 -76 -242 -79
-248 -4 -5 -4 -9 0 -9 3 0 218 179 478 398 786 662 777 654 777 635 0 -10 -29
-279 -65 -598 -83 -755 -107 -984 -103 -996 2 -5 224 265 493 601 270 336 499
622 510 635 l21 25 32 -383 c80 -941 103 -1194 110 -1220 6 -24 45 46 311 560
395 762 443 853 452 848 4 -3 10 -17 13 -32 18 -75 427 -1474 442 -1513 3 -8
107 334 231 760 123 426 228 779 232 783 4 4 157 -279 339 -630 182 -351 351
-676 376 -723 l44 -84 6 34 c3 19 35 384 71 810 36 426 67 779 68 783 1 4 231
-278 511 -628 280 -350 512 -638 516 -640 3 -2 -34 351 -82 783 -48 433 -87
799 -85 813 2 25 57 -19 624 -497 343 -288 624 -524 627 -524 2 0 -27 96 -64
213 -38 116 -125 392 -195 612 -70 220 -150 474 -179 565 -29 91 -52 167 -50
169 4 4 63 -28 898 -488 291 -160 530 -290 532 -288 2 2 -173 325 -390 718
-216 393 -393 715 -392 716 1 1 1469 -463 1539 -486 15 -6 27 -8 27 -6 0 2
-236 284 -525 627 -482 573 -522 623 -497 625 15 2 380 -37 812 -85 432 -49
786 -88 788 -87 1 1 -286 234 -640 516 -436 349 -636 515 -622 517 21 2 1387
119 1499 128 134 10 139 5 -121 140 -214 112 -1133 589 -1193 619 -30 15 -102
-7 841 265 389 113 704 208 700 211 -7 7 -297 92 -1082 319 -250 73 -458 135
-463 139 -7 7 147 89 1020 542 227 117 411 215 409 217 -7 6 -1539 142 -1604
142 l-27 0 27 23 c15 12 302 242 638 512 336 269 606 491 601 493 -12 4 -294
-26 -1040 -109 -294 -32 -543 -59 -553 -59 -19 0 85 127 754 920 151 179 271
326 268 328 -4 1 -171 -49 -371 -112 -606 -190 -1163 -367 -1171 -372 -22 -14
-12 4 459 860 172 313 312 570 310 572 -3 3 -431 -230 -1057 -574 -200 -111
-366 -200 -368 -198 -2 2 11 51 28 108 62 203 452 1433 458 1442 10 18 -24 -9
-232 -184 -331 -276 -978 -820 -1005 -844 l-23 -21 6 70 c4 39 43 396 87 794
44 399 79 733 77 743 -2 15 -10 10 -38 -25 -19 -24 -249 -311 -510 -636 l-475
-592 -12 123 c-6 68 -37 420 -67 783 -31 363 -59 675 -62 694 -7 41 23 94
-447 -813 l-315 -608 -22 73 c-12 41 -30 101 -40 134 -15 46 -214 732 -382
1318 -6 20 -14 37 -18 37 -3 0 -18 -42 -33 -92z"/>
</g>
</svg>
