<?xml version="1.0" ?>

<!-- Uploaded to: SVG Repo, www.svgrepo.com, Generator: SVG Repo Mixer Tools -->
<svg width="800px" height="800px" viewBox="0 0 281.25 281.25" id="svg2" version="1.1" xml:space="preserve" xmlns="http://www.w3.org/2000/svg" xmlns:cc="http://creativecommons.org/ns#" xmlns:dc="http://purl.org/dc/elements/1.1/" xmlns:rdf="http://www.w3.org/1999/02/22-rdf-syntax-ns#" xmlns:svg="http://www.w3.org/2000/svg">

<defs id="defs4"/>

<g id="layer1" transform="translate(6111.1064,-4296.9987)">

<g id="g30780" transform="translate(-2264.4309,-390.06774)">

<path d="m -3609.2619,4717.5437 c -31.9385,-0.2694 -63.8268,8.9887 -90.6555,26.3196 -29.8742,19.2981 -53.1393,48.4658 -65.3119,81.8829 a 4.6875,4.6875 0 0 0 2.7997,6.0077 4.6875,4.6875 0 0 0 6.0095,-2.7997 c 11.4563,-31.4509 33.4711,-59.053 61.5875,-77.2155 21.872,-14.1289 47.4205,-22.5759 73.4015,-24.4263 -14.1515,14.7555 -24.9217,32.715 -31.1627,52.2034 -5.453,17.0279 -7.4654,35.1258 -5.8869,52.9358 a 4.6875,4.6875 0 0 0 5.083,4.2553 4.6875,4.6875 0 0 0 4.2554,-5.0848 c -1.4672,-16.5539 0.4082,-33.4192 5.4767,-49.2462 6.9789,-21.7925 20.106,-41.6426 37.4268,-56.5961 a 4.6875,4.6875 0 0 0 0.9521,-1.1462 4.6875,4.6875 0 0 0 0.035,-0.064 4.6875,4.6875 0 0 0 0.6335,-2.287 4.6875,4.6875 0 0 0 0,-0.011 4.6875,4.6875 0 0 0 0,-0.015 4.6875,4.6875 0 0 0 -0.059,-0.7526 4.6875,4.6875 0 0 0 -0.042,-0.1978 4.6875,4.6875 0 0 0 -0.141,-0.5383 4.6875,4.6875 0 0 0 -0.088,-0.238 4.6875,4.6875 0 0 0 -0.2106,-0.4615 4.6875,4.6875 0 0 0 -0.1282,-0.238 4.6875,4.6875 0 0 0 -0.3058,-0.4449 4.6875,4.6875 0 0 0 -0.1263,-0.1703 4.6875,4.6875 0 0 0 -0.037,-0.048 4.6875,4.6875 0 0 0 -0.05,-0.039 4.6875,4.6875 0 0 0 -1.333,-1.0382 4.6875,4.6875 0 0 0 -0.1519,-0.073 4.6875,4.6875 0 0 0 -1.5857,-0.4377 4.6875,4.6875 0 0 0 -0.086,-0.024 4.6875,4.6875 0 0 0 -0.071,0.01 4.6875,4.6875 0 0 0 -0.2307,-0.022 z" id="path8480" style="color:#000000;fill:#333333;fill-opacity:1;stroke-linecap:round;stroke-linejoin:round;-inkscape-stroke:none"/>

<path d="m -3742.4034,4851.6886 c -0.6103,-0.01 -1.2191,0 -1.8237,0.011 -1.6124,0.042 -3.2012,0.1645 -4.7498,0.3387 -6.1609,0.6929 -11.809,2.1435 -17.1625,2.8656 -7.5034,1.0123 -16.423,0.7007 -25.047,4.6436 -5.5416,2.5337 -10.1988,6.6455 -13.526,11.6382 -3.3214,4.9841 -5.2623,10.7421 -5.83,16.6095 -1.136,11.7435 3.2585,23.294 10.6128,32.0599 6.4953,7.742 15.2907,13.4577 25.047,16.1774 9.7594,2.7208 20.2858,2.3823 29.8443,-1.0437 9.0996,-3.2615 17.0819,-9.2236 22.9065,-16.8695 5.8205,-7.6405 9.4077,-16.8293 10.4755,-26.3196 0.788,-7.003 0.2239,-14.4102 -2.6331,-21.2567 -2.8798,-6.9016 -8.115,-13.0195 -15.2637,-16.2195 -4.1914,-1.8762 -8.5782,-2.5736 -12.8503,-2.6349 z m 72.7057,0 c -4.272,0.061 -8.6589,0.7587 -12.8504,2.6349 -7.1486,3.2 -12.3838,9.3179 -15.2636,16.2195 -2.857,6.8465 -3.4191,14.2537 -2.6312,21.2567 1.0678,9.4903 4.6513,18.6791 10.4718,26.3196 5.8246,7.6459 13.8088,13.608 22.9083,16.8695 9.5585,3.426 20.0849,3.7645 29.8443,1.0437 9.7564,-2.7197 18.5517,-8.4354 25.047,-16.1774 7.3544,-8.7659 11.7489,-20.3164 10.6128,-32.0599 -0.5676,-5.8674 -2.5086,-11.6254 -5.83,-16.6095 -3.3272,-4.9927 -7.9864,-9.1045 -13.5279,-11.6382 -8.6241,-3.9429 -17.5418,-3.6313 -25.0451,-4.6436 -5.3534,-0.7221 -10.998,-2.1727 -17.1589,-2.8656 -1.5487,-0.1742 -3.139,-0.2968 -4.7515,-0.3387 v 0 c -0.6047,-0.016 -1.2116,-0.02 -1.8219,-0.011 z m -74.3189,9.3952 c 1.2876,-0.03 2.5543,0.01 3.7848,0.1171 2.4609,0.2236 4.7785,0.7526 6.8482,1.6791 4.5785,2.0494 8.3745,6.3161 10.4425,11.272 2.091,5.0111 2.6171,10.8336 1.9684,16.5985 -0.8811,7.8317 -3.8725,15.4613 -8.6151,21.687 -4.7385,6.2201 -11.303,11.1039 -18.6127,13.7238 -7.6701,2.7492 -16.2944,3.0344 -24.1644,0.8404 -7.8735,-2.1949 -15.1136,-6.8918 -20.3815,-13.1707 -5.9098,-7.0441 -9.3162,-16.3352 -8.465,-25.1331 0.4259,-4.4032 1.8985,-8.7132 4.2993,-12.3157 2.395,-3.5938 5.7832,-6.5506 9.6259,-8.3075 6.0578,-2.7696 13.9044,-2.736 22.3993,-3.8818 6.0759,-0.8197 11.6577,-2.2421 16.9574,-2.8381 1.3165,-0.1481 2.6254,-0.2415 3.9129,-0.271 z m 75.9321,0 c 1.287,0.029 2.5964,0.1229 3.9129,0.271 5.2997,0.596 10.8814,2.0184 16.9574,2.8381 8.4957,1.1461 16.341,1.1119 22.3993,3.8818 3.8427,1.7569 7.231,4.7137 9.6259,8.3075 2.4008,3.6025 3.8733,7.9125 4.2993,12.3157 0.8511,8.7979 -2.5534,18.089 -8.4632,25.1331 -5.2679,6.2789 -12.5099,10.9758 -20.3833,13.1707 -7.8701,2.194 -16.4943,1.9088 -24.1644,-0.8404 -7.3096,-2.6199 -13.8723,-7.5037 -18.6108,-13.7238 -4.7427,-6.2257 -7.7339,-13.8553 -8.6151,-21.687 -0.6486,-5.7649 -0.1245,-11.5874 1.9665,-16.5985 2.068,-4.9559 5.8623,-9.2226 10.4407,-11.272 2.0698,-0.9265 4.3908,-1.4555 6.8518,-1.6791 1.2305,-0.1118 2.4959,-0.1467 3.783,-0.1171 z" id="path8488" style="color:#000000;fill:#ff4d4c;fill-opacity:1;stroke-linecap:round;stroke-linejoin:round;-inkscape-stroke:none"/>

</g>

</g>

</svg>