<?xml version="1.0" ?>

<!-- Uploaded to: SVG Repo, www.svgrepo.com, Generator: SVG Repo Mixer Tools -->
<svg width="800px" height="800px" viewBox="0 0 281.25 281.25" id="svg2" version="1.1" xml:space="preserve" xmlns="http://www.w3.org/2000/svg" xmlns:cc="http://creativecommons.org/ns#" xmlns:dc="http://purl.org/dc/elements/1.1/" xmlns:rdf="http://www.w3.org/1999/02/22-rdf-syntax-ns#" xmlns:svg="http://www.w3.org/2000/svg">

<defs id="defs4"/>

<g id="layer1" transform="translate(6402.3564,-3399.5356)">

<g id="g20620" transform="translate(-2268.3792,-357.45635)">

<path d="m -4036.9139,3873.6784 c -14.5628,0 -26.4697,11.9051 -26.4697,26.4679 0,14.1599 11.2585,25.8049 25.2685,26.4386 -1.7709,3.5459 -2.774,7.5362 -2.774,11.7517 0,13.6688 10.4902,24.9965 23.8202,26.336 -1.7573,3.535 -2.7521,7.5097 -2.7521,11.7078 0,14.5628 11.9069,26.4715 26.4697,26.4715 14.5629,0 26.4679,-11.9087 26.4679,-26.4715 0,-4.158 -0.973,-8.0975 -2.699,-11.6071 13.9763,-0.6708 25.1935,-12.3013 25.1935,-26.4367 0,-4.2542 -1.022,-8.2787 -2.8235,-11.8488 13.3646,-1.3053 23.8916,-12.6479 23.8916,-26.3415 0,-14.5628 -11.905,-26.4679 -26.4679,-26.4679 -9.0075,0 -16.9944,4.5575 -21.7803,11.4788 -4.7859,-6.9218 -12.7742,-11.4788 -21.7823,-11.4788 -9.0079,0 -16.9964,4.557 -21.7822,11.4788 -4.7859,-6.9213 -12.7727,-11.4788 -21.7804,-11.4788 z m 0,9.375 c 9.4963,0 17.0929,7.5966 17.0929,17.0929 0,9.4961 -7.5966,17.0948 -17.0929,17.0947 -9.4962,0 -17.0947,-7.5986 -17.0947,-17.0947 0,-9.4962 7.5985,-17.0929 17.0947,-17.0929 z m 43.5626,0 c 9.4962,0 17.0929,7.5967 17.0929,17.0929 0,9.4961 -7.5967,17.0947 -17.0929,17.0947 -9.4962,0 -17.0947,-7.5986 -17.0947,-17.0947 0,-9.4962 7.5985,-17.0929 17.0947,-17.0929 z m 43.5626,0 c 9.4962,0 17.0929,7.5967 17.0929,17.0929 0,9.4961 -7.5967,17.0947 -17.0929,17.0947 -9.4961,0 -17.0947,-7.5986 -17.0947,-17.0947 0,-9.4962 7.5986,-17.0929 17.0947,-17.0929 z m -64.6307,38.1884 c 9.4962,0 17.0929,7.5986 17.0929,17.0948 0,6.0164 -3.0514,11.2662 -7.7014,14.3097 -0.743,0.3681 -1.466,0.7709 -2.168,1.2048 -2.1908,1.0136 -4.6352,1.5802 -7.2235,1.5802 -9.4962,0 -17.0947,-7.5985 -17.0947,-17.0947 0,-9.4962 7.5985,-17.0948 17.0947,-17.0948 z m 43.5626,0 c 9.4962,0 17.0929,7.5986 17.0929,17.0948 0,9.4962 -7.5967,17.0947 -17.0929,17.0947 -9.4962,0 -17.0947,-7.5985 -17.0947,-17.0947 0,-9.4962 7.5985,-17.0948 17.0947,-17.0948 z m -22.4945,38.0457 c 9.4962,0 17.0929,7.5966 17.0929,17.0929 0,9.4962 -7.5967,17.0965 -17.0929,17.0965 -9.4962,0 -17.0947,-7.6003 -17.0947,-17.0965 0,-6.015 3.0515,-11.2646 7.6996,-14.3079 0.7455,-0.3692 1.4711,-0.7712 2.1753,-1.2066 2.1894,-1.0119 4.6336,-1.5784 7.2198,-1.5784 z" id="path2601" style="color:#000000;fill:#355fd1;fill-opacity:1;stroke-linecap:round;stroke-linejoin:round;-inkscape-stroke:none"/>

<path d="m -3956.8931,3792.4217 c -12.8604,1.558 -24.7351,8.7372 -32.0893,19.4018 -1.3241,1.9201 -2.4683,3.9201 -3.49,5.9638 -1.209,-2.4197 -2.6888,-4.7075 -4.4256,-6.8061 -4.9292,-5.956 -11.7425,-10.2085 -19.2591,-12.0172 -1.8791,-0.4521 -3.7859,-0.7477 -5.7037,-0.8899 -5.6899,-0.422 -11.4539,0.516 -16.7303,2.7576 v 0 c -0.058,0.024 -0.1163,0.047 -0.174,0.071 a 4.6875,4.6875 0 0 0 -0.5126,0.3241 4.6875,4.6875 0 0 0 -0.6464,0.4083 4.6875,4.6875 0 0 0 -0.4889,0.542 4.6875,4.6875 0 0 0 -0.4669,0.5622 4.6875,4.6875 0 0 0 -0.2985,0.6683 4.6875,4.6875 0 0 0 -0.26,0.5841 c -0.016,0.061 -0.03,0.1235 -0.046,0.185 -1.9248,7.3495 -1.1933,15.2445 2.0581,22.1137 3.2792,6.9278 8.9895,12.5398 15.9742,15.6958 5.299,2.3943 11.1914,3.324 16.9702,2.6788 2.3376,-0.261 4.6343,-0.7818 6.8499,-1.5363 -1.3497,10.3429 -1.1156,20.88 0.6904,31.1554 1.8054,-0.3925 3.6747,-0.6115 5.5938,-0.6115 1.3169,0 2.6081,0.1087 3.8745,0.2966 -2.4103,-12.6431 -2.1839,-25.8103 0.694,-38.3514 1.5477,-6.7447 3.859,-13.1707 7.5183,-18.4772 5.7691,-8.3659 15.4108,-14.1951 25.4993,-15.4175 a 4.6875,4.6875 0 0 0 4.0887,-5.2185 4.6875,4.6875 0 0 0 -5.2166,-4.0887 z m -67.7893,14.9395 c 2.1371,-0.015 4.272,0.2235 6.3336,0.7196 5.4974,1.3228 10.6222,4.521 14.2273,8.877 3.4972,4.2258 5.6421,9.6679 6.0278,15.1611 -2.8635,1.734 -6.1203,2.8656 -9.4336,3.2355 -4.0768,0.4552 -8.3302,-0.2189 -12.0685,-1.908 -4.9001,-2.2141 -9.0613,-6.2982 -11.3617,-11.1584 -1.9711,-4.1643 -2.6326,-9.0257 -1.9061,-13.5993 2.627,-0.8577 5.4059,-1.3077 8.1812,-1.3275 z" id="path2867" style="color:#000000;fill:#333333;fill-opacity:1;stroke-linecap:round;stroke-linejoin:round;-inkscape-stroke:none"/>

</g>

</g>

</svg>